<mxfile host="app.diagrams.net" modified="2023-03-01T15:26:17.380Z" agent="5.0 (Macintosh; Intel Mac OS X 10_15_7) AppleWebKit/537.36 (KHTML, like Gecko) Chrome/110.0.0.0 Safari/537.36 Edg/110.0.1587.50" etag="HjzO5FNOlW_nyUU1tuYO" version="20.8.22" type="github">
  <diagram name="第 1 页" id="UD2yrPtptnOnF9K3Zian">
    <mxGraphModel dx="1229" dy="1131" grid="1" gridSize="10" guides="1" tooltips="1" connect="1" arrows="1" fold="1" page="1" pageScale="1" pageWidth="827" pageHeight="1169" math="0" shadow="0">
      <root>
        <mxCell id="0" />
        <mxCell id="1" parent="0" />
        <mxCell id="hz_8v52AaHfslgrHau0v-1" value="" style="rounded=0;whiteSpace=wrap;html=1;fillColor=#0050ef;fontColor=#ffffff;strokeColor=#001DBC;" parent="1" vertex="1">
          <mxGeometry x="20" y="100" width="120" height="60" as="geometry" />
        </mxCell>
        <mxCell id="hz_8v52AaHfslgrHau0v-18" value="" style="edgeStyle=orthogonalEdgeStyle;rounded=0;orthogonalLoop=1;jettySize=auto;html=1;fontSize=24;" parent="1" source="hz_8v52AaHfslgrHau0v-2" target="hz_8v52AaHfslgrHau0v-10" edge="1">
          <mxGeometry relative="1" as="geometry" />
        </mxCell>
        <mxCell id="hz_8v52AaHfslgrHau0v-19" value="图像（frame/field-picture）" style="edgeLabel;html=1;align=center;verticalAlign=middle;resizable=0;points=[];fontSize=24;" parent="hz_8v52AaHfslgrHau0v-18" vertex="1" connectable="0">
          <mxGeometry x="-0.04" y="-1" relative="1" as="geometry">
            <mxPoint as="offset" />
          </mxGeometry>
        </mxCell>
        <mxCell id="hz_8v52AaHfslgrHau0v-2" value="" style="rounded=0;whiteSpace=wrap;html=1;fillColor=#0050ef;fontColor=#ffffff;strokeColor=#001DBC;" parent="1" vertex="1">
          <mxGeometry x="150" y="100" width="120" height="60" as="geometry" />
        </mxCell>
        <mxCell id="hz_8v52AaHfslgrHau0v-3" value="" style="rounded=0;whiteSpace=wrap;html=1;fillColor=#0050ef;fontColor=#ffffff;strokeColor=#001DBC;" parent="1" vertex="1">
          <mxGeometry x="280" y="100" width="120" height="60" as="geometry" />
        </mxCell>
        <mxCell id="hz_8v52AaHfslgrHau0v-4" value="" style="rounded=0;whiteSpace=wrap;html=1;fillColor=#0050ef;fontColor=#ffffff;strokeColor=#001DBC;" parent="1" vertex="1">
          <mxGeometry x="410" y="100" width="120" height="60" as="geometry" />
        </mxCell>
        <mxCell id="hz_8v52AaHfslgrHau0v-5" value="" style="rounded=0;whiteSpace=wrap;html=1;fillColor=#0050ef;fontColor=#ffffff;strokeColor=#001DBC;" parent="1" vertex="1">
          <mxGeometry x="610" y="100" width="120" height="60" as="geometry" />
        </mxCell>
        <mxCell id="hz_8v52AaHfslgrHau0v-6" value="" style="endArrow=none;dashed=1;html=1;rounded=0;" parent="1" edge="1">
          <mxGeometry width="50" height="50" relative="1" as="geometry">
            <mxPoint x="540" y="129.5" as="sourcePoint" />
            <mxPoint x="600" y="130" as="targetPoint" />
          </mxGeometry>
        </mxCell>
        <mxCell id="hz_8v52AaHfslgrHau0v-7" value="" style="endArrow=classic;startArrow=classic;html=1;rounded=0;" parent="1" edge="1">
          <mxGeometry width="50" height="50" relative="1" as="geometry">
            <mxPoint x="20" y="60" as="sourcePoint" />
            <mxPoint x="730" y="60" as="targetPoint" />
          </mxGeometry>
        </mxCell>
        <mxCell id="hz_8v52AaHfslgrHau0v-8" value="视频序列（video sequence）" style="edgeLabel;html=1;align=center;verticalAlign=middle;resizable=0;points=[];fontSize=24;" parent="hz_8v52AaHfslgrHau0v-7" vertex="1" connectable="0">
          <mxGeometry x="0.0611" y="3" relative="1" as="geometry">
            <mxPoint as="offset" />
          </mxGeometry>
        </mxCell>
        <mxCell id="hz_8v52AaHfslgrHau0v-20" value="" style="edgeStyle=orthogonalEdgeStyle;rounded=0;orthogonalLoop=1;jettySize=auto;html=1;fontSize=24;" parent="1" source="hz_8v52AaHfslgrHau0v-10" target="hz_8v52AaHfslgrHau0v-15" edge="1">
          <mxGeometry relative="1" as="geometry" />
        </mxCell>
        <mxCell id="hz_8v52AaHfslgrHau0v-10" value="" style="rounded=0;whiteSpace=wrap;html=1;fontSize=24;fillColor=#0050ef;fontColor=#ffffff;strokeColor=#001DBC;movable=0;resizable=0;rotatable=0;deletable=0;editable=0;locked=1;connectable=0;" parent="1" vertex="1">
          <mxGeometry x="50" y="260" width="320" height="170" as="geometry" />
        </mxCell>
        <mxCell id="hz_8v52AaHfslgrHau0v-12" value="" style="rounded=0;whiteSpace=wrap;html=1;fontSize=24;fillColor=#008a00;fontColor=#ffffff;strokeColor=#005700;movable=0;resizable=0;rotatable=0;deletable=0;editable=0;locked=1;connectable=0;" parent="1" vertex="1">
          <mxGeometry x="600" y="320" width="70" height="50" as="geometry" />
        </mxCell>
        <mxCell id="hz_8v52AaHfslgrHau0v-13" value="片组（slice group）" style="rounded=0;whiteSpace=wrap;html=1;fontSize=24;fillColor=#008a00;fontColor=#ffffff;strokeColor=#005700;movable=0;resizable=0;rotatable=0;deletable=0;editable=0;locked=1;connectable=0;" parent="1" vertex="1">
          <mxGeometry x="80" y="320" width="260" height="50" as="geometry" />
        </mxCell>
        <mxCell id="hz_8v52AaHfslgrHau0v-14" value="" style="rounded=0;whiteSpace=wrap;html=1;fontSize=24;fillColor=#008a00;fontColor=#ffffff;strokeColor=#005700;movable=0;resizable=0;rotatable=0;deletable=0;editable=0;locked=1;connectable=0;" parent="1" vertex="1">
          <mxGeometry x="530" y="320" width="70" height="50" as="geometry" />
        </mxCell>
        <mxCell id="hz_8v52AaHfslgrHau0v-15" value="" style="rounded=0;whiteSpace=wrap;html=1;fontSize=24;fillColor=#008a00;fontColor=#ffffff;strokeColor=#005700;movable=0;resizable=0;rotatable=0;deletable=0;editable=0;locked=1;connectable=0;" parent="1" vertex="1">
          <mxGeometry x="460" y="320" width="70" height="50" as="geometry" />
        </mxCell>
        <mxCell id="hz_8v52AaHfslgrHau0v-21" value="" style="rounded=0;whiteSpace=wrap;html=1;fontSize=24;fillColor=#008a00;fontColor=#ffffff;strokeColor=#005700;movable=0;resizable=0;rotatable=0;deletable=0;editable=0;locked=1;connectable=0;" parent="1" vertex="1">
          <mxGeometry x="670" y="320" width="70" height="50" as="geometry" />
        </mxCell>
        <mxCell id="VtQVB_yhVB6E30ovmtg_-1" value="片（Slice）" style="text;html=1;strokeColor=none;fillColor=none;align=center;verticalAlign=middle;whiteSpace=wrap;rounded=0;fontSize=16;movable=0;resizable=0;rotatable=0;deletable=0;editable=0;locked=1;connectable=0;" vertex="1" parent="1">
          <mxGeometry x="470" y="270" width="90" height="30" as="geometry" />
        </mxCell>
        <mxCell id="VtQVB_yhVB6E30ovmtg_-2" value="" style="whiteSpace=wrap;html=1;aspect=fixed;fontSize=16;fillColor=#60a917;fontColor=#ffffff;strokeColor=#2D7600;movable=0;resizable=0;rotatable=0;deletable=0;editable=0;locked=1;connectable=0;" vertex="1" parent="1">
          <mxGeometry x="530" y="450" width="130" height="130" as="geometry" />
        </mxCell>
        <mxCell id="VtQVB_yhVB6E30ovmtg_-3" value="" style="endArrow=classic;html=1;rounded=0;fontSize=16;" edge="1" parent="1" target="VtQVB_yhVB6E30ovmtg_-2">
          <mxGeometry width="50" height="50" relative="1" as="geometry">
            <mxPoint x="570" y="350" as="sourcePoint" />
            <mxPoint x="440" y="550" as="targetPoint" />
          </mxGeometry>
        </mxCell>
        <mxCell id="VtQVB_yhVB6E30ovmtg_-4" value="" style="whiteSpace=wrap;html=1;aspect=fixed;fontSize=16;fillColor=#008a00;fontColor=#ffffff;strokeColor=#005700;movable=0;resizable=0;rotatable=0;deletable=0;editable=0;locked=1;connectable=0;" vertex="1" parent="1">
          <mxGeometry x="540" y="460" width="50" height="50" as="geometry" />
        </mxCell>
        <mxCell id="VtQVB_yhVB6E30ovmtg_-5" value="" style="whiteSpace=wrap;html=1;aspect=fixed;fontSize=16;fillColor=#008a00;fontColor=#ffffff;strokeColor=#005700;movable=0;resizable=0;rotatable=0;deletable=0;editable=0;locked=1;connectable=0;" vertex="1" parent="1">
          <mxGeometry x="540" y="520" width="50" height="50" as="geometry" />
        </mxCell>
        <mxCell id="VtQVB_yhVB6E30ovmtg_-6" value="" style="whiteSpace=wrap;html=1;aspect=fixed;fontSize=16;fillColor=#008a00;fontColor=#ffffff;strokeColor=#005700;movable=0;resizable=0;rotatable=0;deletable=0;editable=0;locked=1;connectable=0;" vertex="1" parent="1">
          <mxGeometry x="600" y="520" width="50" height="50" as="geometry" />
        </mxCell>
        <mxCell id="VtQVB_yhVB6E30ovmtg_-7" value="" style="whiteSpace=wrap;html=1;aspect=fixed;fontSize=16;fillColor=#008a00;fontColor=#ffffff;strokeColor=#005700;movable=0;resizable=0;rotatable=0;deletable=0;editable=0;locked=1;connectable=0;" vertex="1" parent="1">
          <mxGeometry x="600" y="460" width="50" height="50" as="geometry" />
        </mxCell>
        <mxCell id="VtQVB_yhVB6E30ovmtg_-8" value="宏块（macroblock）" style="text;html=1;strokeColor=none;fillColor=none;align=center;verticalAlign=middle;whiteSpace=wrap;rounded=0;fontSize=16;movable=0;resizable=0;rotatable=0;deletable=0;editable=0;locked=1;connectable=0;" vertex="1" parent="1">
          <mxGeometry x="414" y="480" width="110" height="30" as="geometry" />
        </mxCell>
        <mxCell id="VtQVB_yhVB6E30ovmtg_-9" value="" style="whiteSpace=wrap;html=1;aspect=fixed;fontSize=16;fillColor=#008a00;fontColor=#ffffff;strokeColor=#005700;movable=0;resizable=0;rotatable=0;deletable=0;editable=0;locked=1;connectable=0;" vertex="1" parent="1">
          <mxGeometry x="560" y="650" width="80" height="80" as="geometry" />
        </mxCell>
        <mxCell id="VtQVB_yhVB6E30ovmtg_-10" value="" style="endArrow=classic;html=1;rounded=0;fontSize=16;" edge="1" parent="1" target="VtQVB_yhVB6E30ovmtg_-9">
          <mxGeometry width="50" height="50" relative="1" as="geometry">
            <mxPoint x="620" y="560" as="sourcePoint" />
            <mxPoint x="290" y="540" as="targetPoint" />
          </mxGeometry>
        </mxCell>
        <mxCell id="VtQVB_yhVB6E30ovmtg_-11" value="子块&lt;br&gt;（sub-block）" style="text;html=1;strokeColor=none;fillColor=none;align=center;verticalAlign=middle;whiteSpace=wrap;rounded=0;fontSize=16;movable=0;resizable=0;rotatable=0;deletable=0;editable=0;locked=1;connectable=0;" vertex="1" parent="1">
          <mxGeometry x="430" y="670" width="110" height="30" as="geometry" />
        </mxCell>
      </root>
    </mxGraphModel>
  </diagram>
</mxfile>
